<svg width="35" height="35" viewBox="0 0 35 35" fill="none" xmlns="http://www.w3.org/2000/svg">
<path d="M29.1668 16.0403H32.0834C32.0834 8.55904 26.4353 2.91675 18.9438 2.91675V5.83341C24.8676 5.83341 29.1668 10.1253 29.1668 16.0403Z" fill="white"/>
<path d="M18.9583 11.6667C22.0251 11.6667 23.3333 12.9748 23.3333 16.0417H26.2499C26.2499 11.3386 23.6614 8.75002 18.9583 8.75002V11.6667ZM23.9487 19.6044C23.6684 19.3497 23.3002 19.2139 22.9217 19.2256C22.5432 19.2373 22.1841 19.3956 21.9201 19.6671L18.4303 23.2561C17.5903 23.0956 15.9016 22.5692 14.1633 20.8352C12.4249 19.0954 11.8985 17.4023 11.7424 16.5681L15.3285 13.0769C15.6003 12.8131 15.7589 12.4539 15.7706 12.0753C15.7823 11.6967 15.6462 11.3284 15.3912 11.0484L10.0026 5.12315C9.74749 4.84221 9.39287 4.6718 9.0141 4.64811C8.63534 4.62442 8.26225 4.74932 7.97409 4.99627L4.80951 7.71023C4.55738 7.96327 4.40689 8.30006 4.38659 8.65669C4.36471 9.02127 3.94763 17.6575 10.6443 24.3571C16.4864 30.1977 23.8043 30.625 25.8197 30.625C26.1143 30.625 26.2951 30.6163 26.3433 30.6134C26.6998 30.5934 27.0364 30.4422 27.2883 30.189L30.0008 27.0229C30.2479 26.735 30.373 26.362 30.3496 25.9832C30.3262 25.6045 30.1561 25.2497 29.8753 24.9944L23.9487 19.6044Z" fill="white"/>
</svg>
