<svg version="1.2" xmlns="http://www.w3.org/2000/svg" viewBox="0 0 1000 1000" width="1000" height="1000">
	<title>3527176-ai</title>
	<style>
		.s0 { fill: #ebebeb } 
		.s1 { fill: #e6e6e6 } 
		.s2 { fill: #fafafa } 
		.s3 { fill: #f0f0f0 } 
		.s4 { fill: #f5f5f5 } 
		.s5 { fill: #ffffff } 
		.s6 { fill: #263238 } 
		.s7 { fill: #ff8b7b } 
		.s8 { fill: #407bff } 
		.s9 { opacity: .2;fill: #000000 } 
		.s10 { opacity: .1;fill: #ffffff } 
		.s11 { fill: #ff5652 } 
		.s12 { fill: #000000 } 
		.s13 { fill: #ffc3bd } 
		.s14 { fill: #ed847e } 
		.s15 { opacity: .2;fill: #ffffff } 
		.s16 { fill: #e0e0e0 } 
	</style>
	<g id="Background Complete">
		<g id="&lt;Group&gt;">
			<path id="&lt;Path&gt;" class="s0" d="m1000 765.3h-1000v-0.5h1000z"/>
			<path id="&lt;Path&gt;" class="s0" d="m601.4 782.1h66.3v0.5h-66.3z"/>
			<path id="&lt;Path&gt;" class="s0" d="m790.4 798.3h17.4v0.5h-17.4z"/>
			<path id="&lt;Path&gt;" class="s0" d="m671.2 790.8h38.4v0.5h-38.4z"/>
			<path id="&lt;Path&gt;" class="s0" d="m104.9 781.8h86.4v0.5h-86.4z"/>
			<path id="&lt;Path&gt;" class="s0" d="m489.3 781.8h12.7v0.5h-12.7z"/>
			<path id="&lt;Path&gt;" class="s0" d="m283.4 790.5h90.6v0.5h-90.6z"/>
			<path id="&lt;Compound Path&gt;" fill-rule="evenodd" class="s0" d="m474 675.6h-386.2c-6.3 0-11.4-5.1-11.4-11.4v-542.9c0-6.3 5.1-11.4 11.4-11.4h386.2c6.3 0 11.4 5.1 11.4 11.4v542.9c0 6.3-5.1 11.4-11.4 11.4zm-386.2-565.2c-6 0-10.9 4.9-10.9 10.9v542.9c0 6 4.9 10.9 10.9 10.9h386.2c6 0 10.9-4.9 10.9-10.9v-542.9c0-6-4.9-10.9-10.9-10.9z"/>
			<path id="&lt;Compound Path&gt;" fill-rule="evenodd" class="s0" d="m906.6 675.6h-386.2c-6.3 0-11.4-5.1-11.4-11.4v-542.9c0-6.3 5.1-11.4 11.4-11.4h386.2c6.3 0 11.4 5.1 11.4 11.4v542.9c0 6.3-5.1 11.4-11.4 11.4zm-386.2-565.2c-6 0-10.9 4.9-10.9 10.9v542.9c0 6 4.9 10.9 10.9 10.9h386.2c6 0 10.9-4.9 10.9-10.9v-542.9c0-6-4.9-10.9-10.9-10.9z"/>
		</g>
		<g id="&lt;Group&gt;">
			<g id="&lt;Group&gt;">
				<path id="&lt;Path&gt;" class="s1" d="m270.6 217.7c0 39-31.7 70.7-70.7 70.7-39.1 0-70.8-31.7-70.8-70.7 0-39.1 31.7-70.8 70.8-70.8 39 0 70.7 31.7 70.7 70.8z"/>
				<g id="&lt;Group&gt;">
					<path id="&lt;Path&gt;" class="s2" d="m248.6 220c-0.4 3.1-3 5.5-6.2 5.5h-2.9c3.8 0 6.8 3.3 6.3 7-0.4 3.2-3.1 5.5-6.3 5.5h-4.6c3.8 0 6.7 3.4 6.2 7.1-0.4 3.2-3 5.5-6.2 5.5h-3.8-11.8-27.9c-2.9 0-5.6-1.1-7.7-3.2l-2.9-2.9c-1.1-1.1-1.8-2.6-1.8-4.2v-27.4c0-2.4 1.5-4.5 3.6-5.4 3.6-7.7 16.3-18.4 17.7-22.1 1.3-3.6-0.4-12.8 2.4-14.2 6.8-3.3 11.8 5.9 11.5 13.3-0.1 3.1-0.4 6.2-0.7 8.9-0.3 2.5 1.5 4.7 3.9 5l21.2 1.9h3.2c3.8 0 6.8 3.3 6.3 7.1-0.4 3.1-3.1 5.5-6.3 5.5h0.6c3.8 0 6.7 3.3 6.2 7.1z"/>
					<path id="&lt;Path&gt;" class="s3" d="m171.3 251.1h-16.6c-2 0-3.7-1.6-3.7-3.7v-39.6c0-2.1 1.7-3.8 3.7-3.8h16.6c2 0 3.7 1.7 3.7 3.8v39.6c0 2.1-1.7 3.7-3.7 3.7z"/>
				</g>
			</g>
			<path id="&lt;Path&gt;" class="s3" d="m708.7 213.4c0 11.8-9.7 21.5-21.5 21.5h-96.5c-16.7 0-30.3-13.6-30.3-30.4 0-16 12.5-29.2 28.4-30.2 3.5-15.8 17.5-27.6 34.3-27.6 13.9 0 26 8.1 31.7 19.8 3.4-1.3 7-2.1 10.9-2.1 16 0 29 12.9 29.1 28.9 8.1 3.1 13.9 10.9 13.9 20.1z"/>
			<path id="&lt;Path&gt;" class="s4" d="m761.8 634.2c0 7.2-5.9 13.1-13.1 13.1h-59c-10.2 0-18.5-8.3-18.5-18.5 0-9.9 7.6-17.9 17.3-18.5 2.1-9.7 10.7-16.9 21-16.9 8.5 0 15.9 5 19.4 12.1 2-0.8 4.3-1.3 6.6-1.3 9.8 0 17.8 7.9 17.8 17.7 5 1.9 8.5 6.7 8.5 12.3z"/>
			<g id="&lt;Group&gt;">
				<path id="&lt;Path&gt;" class="s1" d="m895.5 559.9c0 30.2-24.5 54.7-54.7 54.7-30.2 0-54.7-24.5-54.7-54.7 0-30.2 24.5-54.7 54.7-54.7 30.2 0 54.7 24.5 54.7 54.7z"/>
				<path id="&lt;Path&gt;" class="s2" d="m867.4 567.1l-26.6 26.7-26.6-26.7c-7.4-7.3-7.4-19.2 0-26.6 7.3-7.3 19.2-7.3 26.6 0 7.3-7.3 19.2-7.3 26.6 0 7.3 7.4 7.3 19.3 0 26.6z"/>
			</g>
			<path id="&lt;Path&gt;" class="s4" d="m344.3 106.5c0-9.8 8-17.7 17.8-17.7 2.4 0 4.6 0.5 6.7 1.3 3.5-7.2 10.9-12.1 19.4-12.1 10.3 0 18.9 7.2 21.1 16.9 9.7 0.6 17.3 8.7 17.3 18.5 0 10.3-8.3 18.6-18.5 18.6h-59.1c-7.3 0-13.2-5.9-13.2-13.2 0-5.6 3.5-10.4 8.5-12.3z"/>
			<g id="&lt;Group&gt;">
				<path id="&lt;Path&gt;" class="s4" d="m92.7 701.8v-43.3c0-5.5 4.5-10 10.1-10h90.6c5.6 0 10.1 4.5 10.1 10v43.3c0 5.6-4.5 10.1-10.1 10.1h-90.6c-5.6 0-10.1-4.5-10.1-10.1z"/>
				<path id="&lt;Path&gt;" class="s5" d="m148.1 689.7q-0.6 0-1.1-0.3l-46.5-29.5c-1-0.5-1.2-1.8-0.7-2.7 0.6-1 1.9-1.2 2.8-0.7l45.5 28.8 45.5-28.8c0.9-0.5 2.2-0.3 2.8 0.7 0.6 0.9 0.3 2.2-0.7 2.7l-46.5 29.5q-0.5 0.3-1.1 0.3z"/>
			</g>
			<g id="&lt;Group&gt;">
				<g id="&lt;Group&gt;">
					<path id="&lt;Path&gt;" class="s3" d="m81.7 312.6h71.1c8.2 0 14.9 6.6 14.9 14.8v42.6 13.8l-13.8-13.8h-72.2c-8.2 0-14.9-6.7-14.9-14.8v-27.8c0-8.2 6.7-14.8 14.9-14.8z"/>
					<path id="&lt;Path&gt;" class="s5" d="m81.7 330.4c0-1.3 1.1-2.4 2.5-2.4h67.2c1.3 0 2.5 1.1 2.5 2.4 0 1.4-1.2 2.5-2.5 2.5h-67.2c-1.4 0-2.5-1.1-2.5-2.5z"/>
					<path id="&lt;Path&gt;" class="s5" d="m81.7 341.8c0-1.3 1.1-2.4 2.5-2.4h67.2c1.3 0 2.5 1.1 2.5 2.4 0 1.4-1.2 2.5-2.5 2.5h-67.2c-1.4 0-2.5-1.1-2.5-2.5z"/>
					<path id="&lt;Path&gt;" class="s5" d="m104.6 353.2c0-1.3 1.1-2.4 2.4-2.4h44.4c1.3 0 2.5 1.1 2.5 2.4 0 1.4-1.2 2.5-2.5 2.5h-44.4c-1.3 0-2.4-1.1-2.4-2.5z"/>
				</g>
			</g>
			<g id="&lt;Group&gt;">
				<path id="&lt;Path&gt;" class="s4" d="m886.3 163.7v18.7c0 9.3-7.6 17-16.9 17h-82.5l-15.8 15.8v-15.8-35.7c0-9.3 7.7-17 17-17h81.3c9.3 0 16.9 7.7 16.9 17z"/>
				<path id="&lt;Path&gt;" class="s1" d="m866.5 170h-76.8c-1.5 0-2.8-1.3-2.8-2.8 0-1.6 1.3-2.9 2.8-2.9h76.8c1.6 0 2.9 1.3 2.9 2.9 0 1.5-1.3 2.8-2.9 2.8z"/>
				<path id="&lt;Path&gt;" class="s1" d="m840.4 183h-50.7c-1.5 0-2.8-1.2-2.8-2.8 0-1.6 1.3-2.8 2.8-2.8h50.7c1.5 0 2.8 1.2 2.8 2.8 0 1.6-1.3 2.8-2.8 2.8z"/>
			</g>
		</g>
	</g>
	<g id="Shadow">
		<path id="&lt;Path&gt; 298 " class="s4" d="m887.8 832.5c0 12.5-173.6 22.6-387.8 22.6-214.2 0-387.8-10.1-387.8-22.6 0-12.5 173.6-22.7 387.8-22.7 214.2 0 387.8 10.2 387.8 22.7z"/>
	</g>
	<g id="Character 1">
		<g id="&lt;Group&gt;">
			<path id="&lt;Path&gt;" class="s5" d="m400.1 534.9c0 60.1-36.3 111.8-88.2 134.2-10.5 4.5-21.6 7.9-33.1 9.8-8.1 1.4-16.4 2.1-24.9 2.1q-4.2 0-8.5-0.2c-10-0.6-19.7-2.1-29-4.6-62.5-16.6-108.6-73.6-108.6-141.3 0-80.7 65.4-146.2 146.1-146.2 80.8 0 146.2 65.5 146.2 146.2z"/>
			<g id="&lt;Group&gt;">
				<path id="&lt;Compound Path&gt;" class="s6" d="m315.6 487.7c0 14.2-9.9 26.1-23.1 29.3q-3.4 0.8-7 0.8-2.6 0-5-0.4-2.1-0.4-4.1-1c-0.4-0.1-0.7-0.3-1.1-0.4q0 0 0 0c-5.5-2-10.2-5.5-13.7-10-3.5 4.6-8.4 8.2-14.1 10.2q-2.2 0.8-4.7 1.2-2.4 0.4-5 0.4-1.6 0-3.2-0.2-0.1 0.1-0.3 0 0 0 0 0c-15-1.7-26.6-14.4-26.6-29.9 0-6.9 2.4-13.2 6.3-18.3-12.2-11.4-9.6-35.7 0.5-38.5-5.8-15.7 25.1-34.4 55.7-20.5 29.9 13.6 9.5 43.3 26.1 49.3 11.2 4.3 19.3 15.2 19.3 28z"/>
				<path id="&lt;Compound Path&gt;" class="s7" d="m228.2 549q0 2.6-0.1 5.3 0 1.1-0.1 2.1-0.3 5.8-1.1 11.5v0.1c0 0.3-0.1 0.7-0.1 1v0.1q-0.2 1-0.3 2.1-0.1 0.4-0.2 0.8c-1.2 7.9-3 15.6-5.5 23.1q-0.2 0.8-0.5 1.6-0.5 1.5-1.1 3c-1.6 4.7-3.5 9.2-5.6 13.7-0.2 0.3-0.3 0.5-0.4 0.7q0 0 0 0.1-0.2 0.4-0.5 0.9-0.5 1.1-1.2 2.2c-0.9 1.5-2.1 3.1-3.7 4.6-1.5 1.5-3.6 3-6.1 4-2.6 0.9-5.3 1.1-7.7 0.8-4.7-0.7-7.7-2.7-10.2-4.5-2.4-2-4.3-4-6-6.1-1.6-2.1-3.1-4.2-4.4-6.3q-0.2-0.5-0.5-0.9c-1.1-1.9-2.1-3.8-3-5.9-1.2-2.8 0.1-6 2.8-7.2 2-0.9 4.2-0.5 5.7 0.8h0.1c0.1 0.1 0.2 0.2 0.3 0.3l0.2 0.2c3 2.9 6.3 6 9.5 8.4 1.5 1.1 3.1 2.2 4.5 2.8q0.6 0.3 1.1 0.4c0-0.1 0.2-0.5 0.4-1l0.8-2.3c0.8-2 1.6-4 2.3-6 0.6-2.1 1.3-4.1 1.9-6.1 2.4-8.3 4.2-16.7 5.3-25.2q0.2-1.4 0.3-2.7c0.4-3.4 0.7-6.8 0.9-10.1 0.1-2.1 0.2-4.3 0.2-6.4l-0.1-3.1c0-0.9 0-2.1 0-2.8l-0.1-0.4q0-0.9 0.1-1.7 0 0 0-0.1c0.6-5.2 4.9-9.4 10.3-9.7 5.9-0.3 11 4.1 11.5 10 0.1 1.6 0.2 2.7 0.2 4.1q0.1 1.9 0.1 3.8z"/>
				<path id="&lt;Path&gt;" class="s8" d="m216.3 521.2c16.1-7.5 26.8 24.6 23.8 50.8-22.8 3.2-41.9-10.7-41.9-10.7 0 0-0.7-31.4 18.1-40.1z"/>
				<path id="&lt;Path&gt;" class="s8" d="m221.4 519.5c6.8-1.1 15.4-2.4 23.5-3.1 12.8-1.2 24.8-0.7 39.5 0 5.9 0.3 11.8 0.9 17 1.5 10.7 1.4 18 11.7 15.7 22.2-12.7 58-12.5 78.9-11.2 111.1h-87c-10.7-65.6-13-98-12.8-113.9 0.1-8.8 6.6-16.3 15.3-17.8z"/>
				<path id="&lt;Path&gt;" class="s9" d="m299.5 549.7l14.7 4.2c-2.1 9.9-3.6 18.6-4.9 26.4-10.8-3.4-20.8-22.6-9.8-30.6z"/>
				<path id="&lt;Path&gt;" class="s7" d="m180 600.1l-3.4 9.5c-8.9-0.7-15.3-8.6-15.3-8.6l-7.8-10c-0.9-1.1-1.2-2.7-0.6-4.1l4.5-11.5c1.2-3 5-3.7 7.1-1.3l7.8 9z"/>
				<g id="&lt;Group&gt;">
					<path id="&lt;Path&gt;" class="s5" d="m234.1 518.3c0.2-0.3 0.4-0.5 0.6-0.8 3.4-0.4 6.8-0.8 10.2-1.1 11.7-1.1 22.6-0.8 35.5-0.2 0.4 3-0.5 6.1-2.7 8.4-5.6 5.7-17.5 16.8-35 27l-3.3 1.9-2-3.2c-11.1-17.1-6-28.1-3.3-32z"/>
				</g>
				<path id="&lt;Path&gt;" class="s7" d="m273.5 473.5c-2 11.3-3.7 31 2.2 41.1 1.4 2.3 1 5.3-0.9 7.2-5.5 5.6-17.1 16.4-34.1 26.3-9.6-14.8-5.8-24-3.3-27.6 0.7-1 1.7-1.8 2.9-2.2 12.6-4 12-14.1 9.4-23.6z"/>
				<path id="&lt;Path&gt;" class="s9" d="m267.9 490.5c-2.8 6.9-12.7 11.1-16.8 11.2-0.2-2.3-0.7-4.6-1.4-7l17.8-11.1c0.4 1.4 1.5 4.3 0.4 6.9z"/>
				<path id="&lt;Path&gt;" class="s7" d="m275.3 438.7c5.3 20.6 8 29.2 1.2 42.9-10.3 20.6-36.8 22.6-48.1 4-10.2-16.8-17.2-47.7 0-62.1 16.9-14.2 41.6-5.4 46.9 15.2z"/>
				<path id="&lt;Path&gt;" class="s6" d="m280.9 430.6c4.5 11.2-2 22.5-2 22.5 0 0-14.9-8-18.4-22.5 0 0 16-11.1 20.4 0z"/>
				<path id="&lt;Path&gt;" class="s6" d="m276 448.3c-3.2 4.5-9 4.8-9 4.8 0 0-0.7-7.7 4-12.5 0 0 8.2 3.3 5 7.7z"/>
				<path id="&lt;Path&gt;" class="s6" d="m274.3 445.7c-4.2 3.5-9.9 2.4-9.9 2.4 0 0 1.2-7.5 6.9-11.1 0 0 7.1 5.2 3 8.7z"/>
				<path id="&lt;Path&gt;" class="s6" d="m244.8 413.3c10-1 25.7 4.7 31.8 15.7 6 11-61.4 15.5-57.2 2 3.2-9.5 15.3-16.7 25.4-17.7z"/>
				<path id="&lt;Path&gt;" class="s6" d="m221.9 427.4c-5.2 1.1-8.5 21-5.1 20 3.3-1 23.2-23.8 5.1-20z"/>
				<g id="&lt;Group&gt;">
					<path id="&lt;Path&gt;" class="s6" d="m282.6 651.2c0 0-0.2 1.4-0.6 3.9-0.6 4.6-1.7 12.9-3.2 23.8-8.1 1.4-16.4 2.1-24.9 2.1q-4.2 0-8.5-0.2c-10-0.6-19.7-2.1-29-4.6 0.9-9.6 1.7-16.9 2.1-21.1 0.2-2.5 0.4-3.9 0.4-3.9z"/>
					<path id="&lt;Path&gt;" class="s10" d="m282.6 651.2c0 0-0.2 1.4-0.6 3.9-0.6 4.6-1.7 12.9-3.2 23.8-8.1 1.4-16.4 2.1-24.9 2.1q-4.2 0-8.5-0.2c-10-0.6-19.7-2.1-29-4.6 0.9-9.6 1.7-16.9 2.1-21.1 0.2-2.5 0.4-3.9 0.4-3.9z"/>
				</g>
				<g id="&lt;Group&gt;">
					<path id="&lt;Path&gt;" class="s6" d="m307.6 655.1c1.7 4.3 3.1 9 4.3 14-10.5 4.5-21.6 7.9-33.1 9.8-8.1 1.4-16.4 2.1-24.9 2.1q-4.2 0-8.5-0.2c-1.4-11.8-2.5-20.9-3.1-25.7-0.3-2.5-0.4-3.9-0.4-3.9h64q0.9 1.9 1.7 3.9z"/>
					<path id="&lt;Path&gt;" class="s10" d="m307.6 655.1c1.7 4.3 3.1 9 4.3 14-10.5 4.5-21.6 7.9-33.1 9.8-8.1 1.4-16.4 2.1-24.9 2.1q-4.2 0-8.5-0.2c-1.4-11.8-2.5-20.9-3.1-25.7-0.3-2.5-0.4-3.9-0.4-3.9h64q0.9 1.9 1.7 3.9z"/>
				</g>
				<path id="&lt;Path&gt;" class="s6" d="m244.7 455.5c0.5 1.6 0.1 3.2-1 3.6-1.1 0.3-2.4-0.7-2.9-2.4-0.5-1.6-0.1-3.2 1-3.6 1.1-0.3 2.4 0.7 2.9 2.4z"/>
				<path id="&lt;Path&gt;" class="s6" d="m226.1 461.5c0.5 1.6 0.1 3.3-1 3.6-1 0.4-2.3-0.7-2.9-2.3-0.5-1.7-0.1-3.3 1-3.7 1.1-0.3 2.4 0.8 2.9 2.4z"/>
				<path id="&lt;Path&gt;" class="s6" d="m223.7 459.1l-4.3 0.1c0 0 3 2.5 4.3-0.1z"/>
				<path id="&lt;Path&gt;" class="s11" d="m236.4 473.7c0 0-3.4 2.2-6.2 0.8 1.9-4.4 2.4-12.3 2.4-12.3z"/>
				<path id="&lt;Path&gt;" class="s6" d="m248.1 476.6q-1.2 0.7-2.7 1.1c-0.3 0.1-0.5 0-0.6-0.3-0.1-0.3 0-0.5 0.3-0.6 7.2-2.4 9-8.5 9-8.6 0-0.2 0.3-0.4 0.6-0.3 0.3 0.1 0.4 0.3 0.4 0.6-0.1 0.2-1.5 5.2-7 8.1z"/>
				<path id="&lt;Path&gt;" class="s7" d="m283.4 452.1c0.5 4.4-1.1 8.6-3.5 11.3-3.5 4.2-8.3 1.8-9.9-3.1-1.4-4.4-1.3-11.9 3.5-14.3 4.6-2.4 9.4 1.1 9.9 6.1z"/>
				<path id="&lt;Path&gt;" class="s6" d="m249.3 445.6c-0.3 0-0.5-0.1-0.8-0.2-3.6-2.8-7.1-1.6-7.1-1.6-0.6 0.2-1.1-0.1-1.3-0.6-0.2-0.6 0.1-1.1 0.6-1.3 0.2-0.1 4.6-1.6 9.1 1.9 0.4 0.3 0.5 0.9 0.1 1.4q-0.2 0.3-0.6 0.4z"/>
				<path id="&lt;Path&gt;" class="s6" d="m217.5 457.9q-0.4 0.2-0.8 0.1c-0.5-0.2-0.8-0.8-0.6-1.3 1.8-5.3 6.3-6.6 6.5-6.6 0.5-0.1 1.1 0.2 1.2 0.7 0.2 0.6-0.1 1.1-0.7 1.3-0.2 0-3.7 1-5.1 5.2-0.1 0.3-0.3 0.5-0.5 0.6z"/>
				<path id="&lt;Compound Path&gt;" class="s7" d="m328.8 608v0.4c0 0.7-0.1 1.4-0.3 2.1-0.5 1.9-1.5 4-3.1 5.8-1.6 1.8-3.5 3-5.2 3.8-3.5 1.5-6.2 1.5-8.4 1.4-2.4-0.1-4.5-0.4-6.4-0.9-1.6-0.3-3.1-0.8-4.6-1.2-6.4-2.1-12-4.8-17.4-7.5-5.5-2.9-10.7-5.9-15.8-9.1-4.3-2.8-8.7-5.6-12.9-8.7q0 0 0 0-1-0.7-2-1.4c-2.4-1.8-2.9-5.2-1.1-7.6 1.6-2.1 4.3-2.8 6.6-1.7h0.1q0.4 0.2 0.7 0.3c5 2.3 10.1 4.6 15.2 6.7 5.3 2.3 10.6 4.5 15.9 6.4 5.2 2 10.6 3.8 15.5 4.9q0.5 0.1 0.9 0.2 1.1 0.2 2.1 0.3-0.4-4.6-1.1-9.2-0.1-1.3-0.3-2.6-1-6.1-2.3-12.3-0.5-2.8-1.1-5.5-0.8-3.6-1.6-7.1-1.3-5.4-2.7-10.8-0.5-2.1-1.1-4.1c-1.2-4.6-2.5-9.2-3.7-13.6l-0.1-0.2c-1.7-5.8 1.7-11.9 7.5-13.5 5.7-1.6 11.6 1.5 13.4 7.1 0.7 2.1 1.4 4.1 2 6.2 1.2 4.2 2.3 8.4 3.4 12.6q0.6 2.4 1.2 4.9 1.6 7 3 14.2c2.3 12.8 4 25.9 3.7 39.7z"/>
				<path id="&lt;Path&gt;" class="s8" d="m297.3 517.5c17.7 1.9 22.5 7.3 31.5 32.1-19 13.1-37.5 21.1-37.5 21.1 0 0-14.6-55.5 6-53.2z"/>
				<g id="&lt;Group&gt;">
					<path id="&lt;Path&gt;" class="s6" d="m307.2 646.1l2.2 7.8c0.3 0.6-0.4 1.2-1.4 1.2h-89.5c-0.8 0-1.5-0.4-1.5-0.9l-0.8-7.8c-0.1-0.5 0.6-1 1.5-1h88.1c0.6 0 1.2 0.3 1.4 0.7z"/>
				</g>
				<g id="&lt;Group&gt;">
					<path id="&lt;Path&gt;" class="s6" d="m294.5 655.4l-1.2-10.1c0-0.3 0.4-0.6 0.8-0.6h2.4c0.5 0 0.9 0.3 0.9 0.6l1.1 10.1c0.1 0.3-0.3 0.5-0.8 0.5h-2.3c-0.5 0-0.9-0.2-0.9-0.5z"/>
					<path id="&lt;Path&gt;" class="s10" d="m294.5 655.4l-1.2-10.1c0-0.3 0.4-0.6 0.8-0.6h2.4c0.5 0 0.9 0.3 0.9 0.6l1.1 10.1c0.1 0.3-0.3 0.5-0.8 0.5h-2.3c-0.5 0-0.9-0.2-0.9-0.5z"/>
				</g>
				<g id="&lt;Group&gt;">
					<path id="&lt;Path&gt;" class="s6" d="m224.2 655.4l-1.1-10.1c-0.1-0.3 0.3-0.6 0.8-0.6h2.3c0.5 0 0.9 0.3 0.9 0.6l1.1 10.1c0.1 0.3-0.3 0.5-0.8 0.5h-2.3c-0.5 0-0.9-0.2-0.9-0.5z"/>
					<path id="&lt;Path&gt;" class="s10" d="m224.2 655.4l-1.1-10.1c-0.1-0.3 0.3-0.6 0.8-0.6h2.3c0.5 0 0.9 0.3 0.9 0.6l1.1 10.1c0.1 0.3-0.3 0.5-0.8 0.5h-2.3c-0.5 0-0.9-0.2-0.9-0.5z"/>
				</g>
				<g id="&lt;Group&gt;">
					<path id="&lt;Path&gt;" class="s6" d="m259.3 655.4l-1.1-10.1c0-0.3 0.3-0.6 0.8-0.6h2.4c0.4 0 0.8 0.3 0.9 0.6l1.1 10.1c0 0.3-0.3 0.5-0.8 0.5h-2.4c-0.4 0-0.9-0.2-0.9-0.5z"/>
					<path id="&lt;Path&gt;" class="s10" d="m259.3 655.4l-1.1-10.1c0-0.3 0.3-0.6 0.8-0.6h2.4c0.4 0 0.8 0.3 0.9 0.6l1.1 10.1c0 0.3-0.3 0.5-0.8 0.5h-2.4c-0.4 0-0.9-0.2-0.9-0.5z"/>
				</g>
				<path id="&lt;Path&gt;" class="s12" d="m241.5 597.2h-17.4c-1.7 0-3.2-1.2-3.6-2.8l-8.7-36.5c-0.5-1.9 0.9-3.6 2.7-3.6h17.4c1.7 0 3.2 1.2 3.6 2.9l8.8 36.4c0.4 1.9-0.9 3.6-2.8 3.6z"/>
				<path id="&lt;Path&gt;" class="s6" d="m239.5 597.2h-17.4c-1.7 0-3.2-1.2-3.6-2.9l-8.8-36.4c-0.4-1.9 0.9-3.6 2.8-3.6h17.4c1.7 0 3.2 1.2 3.6 2.9l8.7 36.4c0.5 1.9-0.9 3.6-2.7 3.6z"/>
				<path id="&lt;Path&gt;" class="s7" d="m244 590.4l-14.1-5.8c-1.6-0.7-2.7-2.3-2.8-4l-0.3-11.4c-0.1-2.8 2.5-5.1 5.3-4.5l8 1.5c2.7 0.5 5.2 1.9 7 4l12.5 14.2 0.5 8.8c-5.5 2.5-12.3-0.6-16.1-2.8z"/>
				<path id="&lt;Path&gt;" class="s6" d="m242.3 453.1l-4.3 0.1c0 0 3 2.4 4.3-0.1z"/>
			</g>
			<path id="&lt;Compound Path&gt;" fill-rule="evenodd" class="s8" d="m253.9 682c-81.1 0-147.1-66-147.1-147.1 0-81.2 66-147.2 147.1-147.2 81.2 0 147.2 66 147.2 147.2 0 81.1-66 147.1-147.2 147.1zm0-292.3c-80 0-145.1 65.1-145.1 145.2 0 80 65.1 145.1 145.1 145.1 80.1 0 145.2-65.1 145.2-145.1 0-80.1-65.1-145.2-145.2-145.2z"/>
		</g>
	</g>
	<g id="Character 2">
		<g id="&lt;Group&gt;">
			<path id="&lt;Path&gt;" class="s5" d="m892.2 392.7c0 69.1-48 127.1-112.5 142.2-10.8 2.6-22.1 3.9-33.6 3.9-24.6 0-47.7-6-68.1-16.7-46.4-24.5-78.1-73.3-78.1-129.4 0-80.7 65.4-146.2 146.2-146.2 80.7 0 146.1 65.5 146.1 146.2z"/>
			<g id="&lt;Group&gt;">
				<path id="&lt;Path&gt;" class="s6" d="m749.5 308.5c-0.1 11.6-17.2 36.3-17.2 36.3 0 0-11.3-10.4-15.6-26.7-4.4-16.3 6.2-39.7 24.1-30.3 6.7 3.5 8.8 6.4 8.7 20.7z"/>
				<path id="&lt;Path&gt;" class="s6" d="m730.5 338.2c-0.6-3.5-11-1.3-8.5 2.6 2.6 3.9 8.7-0.9 8.5-2.6z"/>
				<path id="&lt;Path&gt;" class="s6" d="m729.6 338.7c-3.3-1.4-7 8.6-2.4 8.5 4.7-0.1 3.9-7.8 2.4-8.5z"/>
				<path id="&lt;Path&gt;" class="s6" d="m735.9 291.9c-8.4-8.3 11.1-15.4 30-12.1 18.9 3.4 25.1 20 18.4 28.1-5.3 6.5-38.2-5.8-48.4-16z"/>
				<path id="&lt;Path&gt;" class="s6" d="m735.1 286.9c3-2-3.5-10.5-5.9-6.5-2.4 3.9 4.5 7.5 5.9 6.5z"/>
				<path id="&lt;Path&gt;" class="s6" d="m790.8 446.3q-0.1 2.8-0.2 5.7-0.1 1.6-0.2 3.3-0.2 4.3-0.5 8.8-0.1 1.9-0.3 3.9 0 0.2-0.1 0.5-0.1 2-0.3 4-0.7 7.4-1.6 15.3c-1.8 14.3-4.3 30-7.9 47.1-10.8 2.6-22.1 3.9-33.6 3.9-24.6 0-47.7-6-68.1-16.7 1.2-9.6 2.7-22 3.9-36.3 0.7-7.8 1.3-16.2 1.8-25q0-1 0-2 0.2-3.2 0.3-6.5 0.1-2 0.1-4.1 0.1-2.7 0.2-5.5v-4.5-2q0.1-1.5 0.1-3.1 0-5.2-0.2-10.5v-0.2c-0.2-9.2-0.6-18.6-1.5-28.1q0-0.8-0.1-1.7c-0.5-4.7 1.1-9.2 3.9-12.6 3-3.7 7.4-6.1 12.4-6.4q0.2 0 0.3 0c2.3-0.2 4.8-0.3 7.3-0.3q3.4-0.1 6.8-0.1h1.3c1.3 0 2.6 0 3.9 0.1q2.1 0 4.3 0.1 1.9 0 3.8 0.1c7.1 0.2 14.7 0.6 21.3 1.2q0.7 0.1 1.3 0.2 3.9 0.3 7.1 0.8 0.7 0.1 1.3 0.2 2.6 0.4 5.1 0.9 0.4 0 0.8 0.1c2.8 0.6 5.4 1.2 7.9 1.7 8.6 2.1 14.9 4.3 14.9 4.3q0 0 0 0.1c0.2 0.9 1.7 7.1 3 18.2 0.8 7.6 1.5 17.6 1.7 29.8q0 0 0 0 0.1 7.1-0.2 15.3z"/>
				<path id="&lt;Compound Path&gt;" class="s13" d="m822 492.3c-0.5 1.6-0.9 3.4-2.9 5.9-0.8 1-2.2 2.3-3.5 3.1q-1 0.6-2.1 1-1 0.4-2 0.6c-2.6 0.5-4.5 0.2-5.7 0l-1-0.2-0.7-0.3c-0.5-0.1-0.9-0.3-1.3-0.5-1.6-0.6-2.5-1.3-3.4-1.9-1.7-1.2-3-2.3-4.2-3.4-2.3-2.1-4.1-4.4-5.9-6.5-3.5-4.4-6.5-8.8-9.2-13.7l9.3-8.3q-0.3-0.8-0.6-1.6-5.4-14.7-10.3-29.5c-3.3-9.8-6.4-19.7-9.3-29.7l27.5-8.3c3.1 9.7 6.2 19.5 9.2 29.3l8.8 29.5 4.4 14.7c0.8 2.5 1.5 4.5 2.3 8 0.4 1.7 0.8 3.4 1 6.1 0 1.4 0.2 2.8-0.4 5.7z"/>
				<path id="&lt;Path&gt;" class="s6" d="m804.1 400.3c11.8 20.1 10.6 48.3 10.6 48.3l-31.7 8.7c0 0-23.4-47.2-16-63.7 8.1-18.1 25-14.1 37.1 6.7z"/>
				<path id="&lt;Path&gt;" class="s8" d="m768.4 393.6c-1.5 2.6-4.8 5.8-12.2 5.8q0 0 0 0-1.9 0-4.1-0.3c-19-2.4-29.2-14.5-34.7-21l-4.1-4.9q0 0 0 0c13 0.1 32.6 0.9 44.3 2.7q2.6 0.4 5.1 0.9 0.4 0 0.8 0.1c2.3 0.5 4.2 2 5.1 4.2 1.5 4 2 8.7-0.2 12.5z"/>
				<path id="&lt;Path&gt;" class="s9" d="m684 452.3c0.4-9.6 0.5-19.5 0.2-29.7 0.1-0.2 0-0.4 0-0.6l17.6-6.8c0.8 6.7 0.5 29.5-17.8 37.1z"/>
				<path id="&lt;Path&gt;" class="s13" d="m735.9 343.5l14.4 7.4c1.8 1 2.8 3 2.5 5.1-1.5 9.7-2.9 18.6 9.9 23.2 0.4 0.1 0.7 0.3 0.9 0.7 3.6 6.4 4.9 17.3-11 15.3-15.5-2-24.4-10.7-31.1-18.5-0.6-0.7-0.5-1.6 0.2-2.2 7.5-6.8 9.2-17.4 8.6-27.3-0.3-3 2.9-5.1 5.6-3.7z"/>
				<path id="&lt;Path&gt;" class="s9" d="m752.4 369.6c-6.3-2.2-12.3-6.4-14.4-11.5-0.3-0.7-0.6-1.4-0.9-2.1l15.6 0.5c-0.7 4.7-1.3 9.2-0.3 13.1z"/>
				<path id="&lt;Path&gt;" class="s13" d="m775.9 297.6c14.7 13.2 7.6 40.2-2 54.7-10.6 16-35.2 16.2-43.6-2.3-5.6-12.3-1.6-22.5 3.7-40.5 5.3-18 27.4-25 41.9-11.9z"/>
				<path id="&lt;Path&gt;" class="s6" d="m729.7 326.8c12.7 6.8 30-38 11.6-38-18.4 0-17.6 34.8-11.6 38z"/>
				<path id="&lt;Path&gt;" class="s13" d="m731.5 311.3c5.6 2.3 4.7 10.6 3.4 15.8-1.4 5.8-5.2 9.2-9.5 4.7-2.9-3-5.1-7.7-4.9-12.8 0.2-5.7 5.4-10 11-7.7z"/>
				<path id="&lt;Path&gt;" class="s6" d="m760.7 321.3c0.9 0.4 1.2 1.8 0.7 3.2-0.5 1.5-1.7 2.4-2.6 2-1-0.3-1.3-1.8-0.8-3.2 0.5-1.4 1.7-2.3 2.7-2z"/>
				<path id="&lt;Path&gt;" class="s6" d="m778.3 328.2c1 0.4 1.3 1.8 0.8 3.3-0.5 1.4-1.7 2.3-2.7 1.9-0.9-0.3-1.2-1.7-0.7-3.2 0.5-1.4 1.7-2.3 2.6-2z"/>
				<path id="&lt;Path&gt;" class="s14" d="m769.7 328.9c0 0 0.3 9.4 2.4 14.7-3.4 1.5-7.3-1.2-7.3-1.2z"/>
				<path id="&lt;Path&gt;" class="s6" d="m760.9 346.4c-5.4-2.2-7-6.8-7.1-7-0.1-0.2 0.1-0.5 0.3-0.5 0.2-0.1 0.5 0 0.6 0.2 0 0.1 1.8 5.4 8.3 7.1 0.2 0 0.4 0.3 0.3 0.5 0 0.3-0.3 0.4-0.5 0.4q-1-0.3-1.9-0.7z"/>
				<path id="&lt;Path&gt;" class="s6" d="m757.3 316.4q-0.2-0.1-0.3-0.3c-0.3-0.4-0.2-1 0.2-1.3 4.2-2.7 8-1 8.1-0.9 0.5 0.2 0.7 0.7 0.5 1.1-0.2 0.5-0.7 0.7-1.2 0.5-0.1-0.1-3.1-1.3-6.4 0.8-0.3 0.2-0.6 0.2-0.9 0.1z"/>
				<path id="&lt;Path&gt;" class="s6" d="m786.3 327.3c-0.2-0.2-0.4-0.4-0.5-0.7-0.4-4-3.2-5.5-3.3-5.6-0.5-0.2-0.6-0.7-0.4-1.2 0.2-0.4 0.8-0.6 1.2-0.4 0.1 0.1 3.8 2 4.3 7 0.1 0.5-0.3 0.9-0.8 1q-0.3 0-0.5-0.1z"/>
				<g id="&lt;Group&gt;">
					<path id="&lt;Compound Path&gt;" class="s13" d="m752.3 450c-11.9 8.6-24.1 16.3-37.3 23.1-6.5 3.5-13.3 6.6-20.8 9.4-3.8 1.3-7.7 2.5-12.4 3.3-2.4 0.3-5 0.6-8.3 0.3-1.8-0.2-3.6-0.5-5.9-1.4-2.2-0.8-4.7-2.3-6.9-4.7-2.1-2.3-3.5-5.2-4.2-7.8-0.6-2.5-0.7-4.8-0.5-6.5v-1.4l0.1-0.8 0.2-1.5q0.1-1.5 0.4-3c0.5-4.1 1.3-8.1 2.3-11.9 2-7.7 4.5-15 7.5-22.1 3-7.1 6.4-13.9 10.1-20.5q2.8-4.9 5.8-9.7 1.5-2.4 3.1-4.8c1.1-1.6 2.1-3 3.5-4.8l23.2 16.8c-0.8 1.1-1.8 2.6-2.6 4l-2.7 4.2q-2.7 4.2-5.2 8.6c-3.4 5.8-6.5 11.8-9.4 17.7-2.7 6-5.3 12-7.3 18q-1 3.2-1.8 6.3 2-0.3 4.1-0.9c6.2-1.5 12.6-3.7 19.1-6.1 6.4-2.4 12.9-5 19.4-7.7 6.5-2.6 13-5.6 19.4-8.3z"/>
					<path id="&lt;Path&gt;" class="s6" d="m716.1 409.4c-11.1 20.5-16.6 31.8-16.6 31.8l-36.2-11.8c0 0 14.5-52.6 32.4-55 21.8-2.8 32.5 12.6 20.4 35z"/>
					<path id="&lt;Path&gt;" class="s13" d="m770.7 430.5l2.7 4.1c2.1 3.1 0.4 7.3-3.2 8.2l-4.7 1.1c0 0-12.8 12.1-20.4 6.7l-5.2-10.2 13.1-11.3c1.3-1.1 2.8-1.6 4.4-1.5l9.1 0.5c1.7 0.1 3.2 1 4.2 2.4z"/>
				</g>
				<path id="&lt;Path&gt;" class="s5" d="m777.8 472.4l-15.3-2.3c-1.6-0.3-2.6-2-1.9-3.4l15.1-36.1c0.4-1 1.5-1.6 2.7-1.5l15.3 2.4c1.6 0.2 2.5 1.9 1.9 3.4l-15.1 36c-0.5 1.1-1.6 1.7-2.7 1.5z"/>
				<path id="&lt;Path&gt;" class="s8" d="m779.9 472.7l-15.4-2.4c-1.5-0.2-2.5-1.9-1.9-3.3l15.2-36.1c0.4-1.1 1.5-1.7 2.6-1.5l15.4 2.4c1.6 0.2 2.5 1.9 1.9 3.3l-15.2 36.1c-0.4 1.1-1.5 1.7-2.6 1.5z"/>
				<path id="&lt;Path&gt;" class="s13" d="m783 477.7c-8.7-1.2-13.9-8.5-13.9-8.5l8.8-19.7 15.8 19.3z"/>
				<path id="&lt;Path&gt;" class="s13" d="m765.6 446.9l12.3 2.6-8.8 19.7-5.6-5.2c-1.5-1.4-2.4-3.2-2.7-5.3l-1-6.4c-0.4-3.4 2.5-6.1 5.8-5.4z"/>
				<path id="&lt;Path&gt;" class="s6" d="m762.3 300.1c-5.2 11.5 29.7 25 29.6 8.8 0-16.2-27.1-14.2-29.6-8.8z"/>
				<path id="&lt;Path&gt;" class="s6" d="m740.7 293.4c-4.5 13.7 58.9 21 55.7 2.9-3.1-18.1-53.6-9.3-55.7-2.9z"/>
				<path id="&lt;Path&gt;" class="s6" d="m759.6 297.3c5.3 11.5 38.3-6.1 26-16.6-12.3-10.6-28.5 11.2-26 16.6z"/>
			</g>
			<path id="&lt;Compound Path&gt;" fill-rule="evenodd" class="s8" d="m746.1 539.8c-81.2 0-147.2-66-147.2-147.1 0-81.2 66-147.2 147.2-147.2 81.1 0 147.1 66 147.1 147.2 0 81.1-66 147.1-147.1 147.1zm0-292.3c-80.1 0-145.2 65.1-145.2 145.2 0 80 65.1 145.1 145.2 145.1 80 0 145.1-65.1 145.1-145.1 0-80.1-65.1-145.2-145.1-145.2z"/>
		</g>
	</g>
	<g id="Messenger">
		<g id="&lt;Group&gt;">
			<path id="&lt;Path&gt;" class="s8" d="m360.5 266.9h-2.1v-25.6c0-17.9 14.5-32.3 32.3-32.3v2.1c-16.7 0-30.2 13.5-30.2 30.2z"/>
			<path id="&lt;Path&gt;" class="s8" d="m360.5 299.5h-2.1v-16.7h2.1z"/>
			<g id="&lt;Group&gt;">
				<path id="&lt;Path&gt;" class="s5" d="m609.3 704.3h-218.6c-13.9 0-25.2-11.4-25.2-25.3v-437.7c0-13.9 11.3-25.3 25.2-25.3h218.6c13.9 0 25.2 11.4 25.2 25.3v437.7c0 13.9-11.3 25.3-25.2 25.3z"/>
				<path id="&lt;Compound Path&gt;" fill-rule="evenodd" class="s8" d="m609.3 705.3h-218.6c-14.5 0-26.3-11.8-26.3-26.3v-437.7c0-14.5 11.8-26.3 26.3-26.3h218.6c14.5 0 26.3 11.8 26.3 26.3v437.7c0 14.5-11.8 26.3-26.3 26.3zm-218.6-488.2c-13.3 0-24.2 10.8-24.2 24.2v437.7c0 13.4 10.9 24.2 24.2 24.2h218.6c13.3 0 24.2-10.8 24.2-24.2v-437.7c0-13.4-10.9-24.2-24.2-24.2z"/>
			</g>
			<path id="&lt;Path&gt;" class="s8" d="m634.5 241.3h-269c0-13.9 11.3-25.3 25.2-25.3h218.6c13.9 0 25.2 11.4 25.2 25.3z"/>
			<path id="&lt;Path&gt;" class="s5" d="m406.7 228.6c0 4.3-3.4 7.7-7.6 7.7-4.3 0-7.7-3.4-7.7-7.7 0-4.2 3.4-7.6 7.7-7.6 4.2 0 7.6 3.4 7.6 7.6z"/>
			<path id="&lt;Path&gt;" class="s5" d="m604.6 228.6c0 1-0.7 1.8-1.7 1.8-0.9 0-1.7-0.8-1.7-1.8 0-0.9 0.8-1.7 1.7-1.7 1 0 1.7 0.8 1.7 1.7z"/>
			<path id="&lt;Path&gt;" class="s5" d="m604.6 234.9c0 0.9-0.7 1.7-1.7 1.7-0.9 0-1.7-0.8-1.7-1.7 0-1 0.8-1.8 1.7-1.8 1 0 1.7 0.8 1.7 1.8z"/>
			<path id="&lt;Path&gt;" class="s5" d="m604.6 222.4c0 1-0.7 1.7-1.7 1.7-0.9 0-1.7-0.7-1.7-1.7 0-0.9 0.8-1.7 1.7-1.7 1 0 1.7 0.8 1.7 1.7z"/>
			<path id="&lt;Path&gt;" class="s15" d="m468.5 232.2h-51.1c-2 0-3.6-1.6-3.6-3.6 0-2 1.6-3.6 3.6-3.6h51.1c2 0 3.6 1.6 3.6 3.6 0 2-1.6 3.6-3.6 3.6z"/>
			<path id="&lt;Path&gt;" class="s8" d="m609.7 335.4h-137.3c-5 0-9.1-4.1-9.1-9.1v-50.2c0-5.1 4.1-9.2 9.1-9.2h137.3c5 0 9.1 4.1 9.1 9.2v50.2c0 5-4.1 9.1-9.1 9.1z"/>
			<path id="&lt;Path&gt;" class="s16" d="m527.6 386.4h-137.3c-5 0-9.1-4.1-9.1-9.2v-17.6c0-5.1 4.1-9.1 9.1-9.1h137.3c5 0 9.1 4 9.1 9.1v17.6c0 5.1-4.1 9.2-9.1 9.2z"/>
			<path id="&lt;Path&gt;" class="s16" d="m527.6 570.9h-137.3c-5 0-9.1-4-9.1-9.1v-100.3c0-5.1 4.1-9.2 9.1-9.2h137.3c5 0 9.1 4.1 9.1 9.2v100.3c0 5.1-4.1 9.1-9.1 9.1z"/>
			<path id="&lt;Path&gt;" class="s8" d="m609.7 620.4h-54.9c-5.1 0-9.1-4.1-9.1-9.1v-17.7c0-5 4-9.1 9.1-9.1h54.9c5 0 9.1 4.1 9.1 9.1v17.7c0 5-4.1 9.1-9.1 9.1z"/>
			<path id="&lt;Path&gt;" class="s5" d="m586.8 600.1c0 2.5-2 4.6-4.6 4.6-2.5 0-4.6-2.1-4.6-4.6 0-2.6 2.1-4.6 4.6-4.6 2.6 0 4.6 2 4.6 4.6z"/>
			<path id="&lt;Path&gt;" class="s5" d="m571.5 602.4c0 2.6-2 4.6-4.6 4.6-2.5 0-4.6-2-4.6-4.6 0-2.5 2.1-4.6 4.6-4.6 2.6 0 4.6 2.1 4.6 4.6z"/>
			<path id="&lt;Path&gt;" class="s5" d="m602.2 604.8c0 2.5-2.1 4.6-4.7 4.6-2.5 0-4.6-2.1-4.6-4.6 0-2.6 2.1-4.7 4.6-4.7 2.6 0 4.7 2.1 4.7 4.7z"/>
			<path id="&lt;Path&gt;" class="s8" d="m609.7 437.3h-137.3c-5 0-9.1-4.1-9.1-9.1v-17.7c0-5 4.1-9.1 9.1-9.1h137.3c5 0 9.1 4.1 9.1 9.1v17.7c0 5-4.1 9.1-9.1 9.1z"/>
			<path id="&lt;Path&gt;" class="s8" d="m389.6 688.5c-4.7 0-8.4-3.7-8.4-8.3 0-4.6 3.7-8.4 8.4-8.4 4.6 0 8.3 3.8 8.3 8.4 0 4.6-3.7 8.3-8.3 8.3z"/>
			<path id="&lt;Path&gt;" class="s16" d="m414.8 688.5c-4.6 0-8.4-3.7-8.4-8.3 0-4.6 3.8-8.4 8.4-8.4 4.6 0 8.3 3.8 8.3 8.4 0 4.6-3.7 8.3-8.3 8.3z"/>
			<path id="&lt;Path&gt;" class="s0" d="m440 688.5c-4.6 0-8.4-3.7-8.4-8.3 0-4.6 3.8-8.4 8.4-8.4 4.6 0 8.3 3.8 8.3 8.4 0 4.6-3.7 8.3-8.3 8.3z"/>
			<path id="&lt;Path&gt;" class="s0" d="m610.4 688.5h-68.2c-4.5 0-8.3-3.7-8.3-8.3 0-4.6 3.8-8.4 8.3-8.4h68.2c4.6 0 8.4 3.8 8.4 8.4 0 4.6-3.8 8.3-8.4 8.3z"/>
			<path id="&lt;Path&gt;" class="s8" d="m634.5 647.1h-269v-2.1h269z"/>
		</g>
	</g>
</svg>