<svg width="18" height="18" viewBox="0 0 18 18" fill="none" xmlns="http://www.w3.org/2000/svg">
<path d="M7.78061 11.076L3.53861 15.3188C3.46893 15.3885 3.3862 15.4438 3.29516 15.4815C3.20411 15.5192 3.10653 15.5386 3.00799 15.5386C2.90944 15.5386 2.81186 15.5192 2.72081 15.4815C2.62977 15.4438 2.54704 15.3885 2.47736 15.3188C2.40768 15.2491 2.3524 15.1664 2.31469 15.0753C2.27698 14.9843 2.25757 14.8867 2.25757 14.7882C2.25757 14.6896 2.27698 14.592 2.31469 14.501C2.3524 14.41 2.40768 14.3272 2.47736 14.2575L6.72011 10.0155L3.53861 6.83255C4.1367 6.23393 4.87078 5.78894 5.67815 5.53558C6.48553 5.28221 7.34223 5.22799 8.17511 5.37755L10.9629 2.59055C11.2442 2.30934 11.6256 2.15137 12.0234 2.15137C12.4211 2.15137 12.8026 2.30934 13.0839 2.59055L15.2056 4.71155C15.345 4.85084 15.4555 5.01623 15.5309 5.19826C15.6063 5.38028 15.6452 5.57539 15.6452 5.77242C15.6452 5.96946 15.6063 6.16456 15.5309 6.34659C15.4555 6.52862 15.345 6.694 15.2056 6.8333L12.4186 9.6203C12.5682 10.4534 12.5139 11.3102 12.2604 12.1178C12.0069 12.9253 11.5617 13.6594 10.9629 14.2575L7.78061 11.076Z" fill="#33BEE7"/>
</svg>
