<svg width="40" height="40" viewBox="0 0 40 40" fill="none" xmlns="http://www.w3.org/2000/svg">
<circle cx="20" cy="20" r="20" fill="#33BEE7"/>
<path d="M20 24C22.206 24 24 22.206 24 20V14C24 11.783 22.215 9.979 20.021 9.979C19.9506 9.97943 19.8805 9.98781 19.812 10.004C18.7853 10.0538 17.8169 10.4964 17.1074 11.2402C16.3978 11.984 16.0014 12.972 16 14V20C16 22.206 17.794 24 20 24Z" fill="white"/>
<path d="M19 27.931V30H21V27.931C24.939 27.436 28 24.073 28 20H26C26 23.309 23.309 26 20 26C16.691 26 14 23.309 14 20H12C12 24.072 15.061 27.436 19 27.931Z" fill="white"/>
</svg>
